<svg xmlns="http://www.w3.org/2000/svg" width="720" height="280" viewBox="0 0 720 280">
  <rect width="720" height="280" fill="#f8fafc" rx="8"/>
  <text x="36" y="18" font-size="12" font-weight="600" fill="#334155">APPLY — daily (goal 50)</text>
  <line x1="36" y1="132" x2="700" y2="132" stroke="#e2e8f0" stroke-width="1"/>
  <line x1="36" y1="30.0" x2="700" y2="30.0" stroke="#f59e0b" stroke-width="1" stroke-dasharray="4 3" opacity="0.55"/>
  <polyline points="36.0,105.5 130.9,28.0 225.7,113.6 320.6,119.8 415.4,125.9 510.3,130.0 605.1,105.5 700.0,132.0" fill="none" stroke="#ef4444" stroke-width="2.5" stroke-linecap="round" stroke-linejoin="round"/>
  <circle cx="36" cy="105.49019607843138" r="3.5" fill="#ef4444"/><circle cx="130.85714285714283" cy="28" r="3.5" fill="#ef4444"/><circle cx="225.7142857142857" cy="113.6470588235294" r="3.5" fill="#ef4444"/><circle cx="320.57142857142856" cy="119.76470588235294" r="3.5" fill="#ef4444"/><circle cx="415.4285714285714" cy="125.88235294117646" r="3.5" fill="#ef4444"/><circle cx="510.2857142857143" cy="129.9607843137255" r="3.5" fill="#ef4444"/><circle cx="605.1428571428571" cy="105.49019607843138" r="3.5" fill="#ef4444"/><circle cx="700" cy="132" r="3.5" fill="#ef4444"/>
  <text x="36" y="146" font-size="10" fill="#94a3b8" text-anchor="middle">07-07</text><text x="130.85714285714283" y="146" font-size="10" fill="#94a3b8" text-anchor="middle">07-08</text><text x="225.7142857142857" y="146" font-size="10" fill="#94a3b8" text-anchor="middle">07-09</text><text x="320.57142857142856" y="146" font-size="10" fill="#94a3b8" text-anchor="middle">07-10</text><text x="415.4285714285714" y="146" font-size="10" fill="#94a3b8" text-anchor="middle">07-13</text><text x="510.2857142857143" y="146" font-size="10" fill="#94a3b8" text-anchor="middle">07-14</text><text x="605.1428571428571" y="146" font-size="10" fill="#94a3b8" text-anchor="middle">07-15</text><text x="700" y="146" font-size="10" fill="#94a3b8" text-anchor="middle">07-16</text>
  <text x="36" y="140" font-size="12" font-weight="600" fill="#334155">CONNECT — daily adds (left) · weekly total (right)</text>
  <line x1="36" y1="252" x2="700" y2="252" stroke="#e2e8f0" stroke-width="1"/>
  <polyline points="36.0,250.9 130.9,148.0 225.7,252.0 320.6,252.0 415.4,252.0 510.3,250.9 605.1,223.6 700.0,252.0" fill="none" stroke="#8b5cf6" stroke-width="2" stroke-linecap="round" stroke-linejoin="round" stroke-dasharray="5 3"/>
  <rect x="178.0" y="148.0" width="48" height="104.0" rx="3" fill="#fcd34d" opacity="0.9"/><rect x="510.0" y="222.9" width="48" height="29.1" rx="3" fill="#f59e0b" opacity="0.9"/>
  <line x1="401.20000000000005" y1="148" x2="401.20000000000005" y2="252" stroke="#e2e8f0" stroke-width="1"/>
  <text x="202" y="274" font-size="10" fill="#94a3b8" text-anchor="middle">07-06</text><text x="534" y="274" font-size="10" fill="#94a3b8" text-anchor="middle">07-13</text>
  <text x="700" y="18" font-size="10" fill="#ef4444" text-anchor="end">Apply / day</text>
  <text x="700" y="140" font-size="10" fill="#8b5cf6" text-anchor="end">Connect / day</text>
  <text x="700" y="152" font-size="10" fill="#f59e0b" text-anchor="end">Connect / week</text>
</svg>