<svg xmlns="http://www.w3.org/2000/svg" width="720" height="280" viewBox="0 0 720 280">
  <rect width="720" height="280" fill="#f8fafc" rx="8"/>
  <text x="36" y="18" font-size="12" font-weight="600" fill="#334155">APPLY — daily (goal 50)</text>
  <line x1="36" y1="132" x2="700" y2="132" stroke="#e2e8f0" stroke-width="1"/>
  <line x1="36" y1="30.0" x2="700" y2="30.0" stroke="#f59e0b" stroke-width="1" stroke-dasharray="4 3" opacity="0.55"/>
  <polyline points="36.0,105.5 96.4,28.0 156.7,113.6 217.1,119.8 277.5,125.9 337.8,130.0 398.2,105.5 458.5,132.0 518.9,74.9 579.3,115.7 639.6,30.0 700.0,119.8" fill="none" stroke="#ef4444" stroke-width="2.5" stroke-linecap="round" stroke-linejoin="round"/>
  <circle cx="36" cy="105.49019607843138" r="3.5" fill="#ef4444"/><circle cx="96.36363636363637" cy="28" r="3.5" fill="#ef4444"/><circle cx="156.72727272727275" cy="113.6470588235294" r="3.5" fill="#ef4444"/><circle cx="217.09090909090907" cy="119.76470588235294" r="3.5" fill="#ef4444"/><circle cx="277.4545454545455" cy="125.88235294117646" r="3.5" fill="#ef4444"/><circle cx="337.8181818181818" cy="129.9607843137255" r="3.5" fill="#ef4444"/><circle cx="398.18181818181813" cy="105.49019607843138" r="3.5" fill="#ef4444"/><circle cx="458.54545454545456" cy="132" r="3.5" fill="#ef4444"/><circle cx="518.909090909091" cy="74.90196078431373" r="3.5" fill="#ef4444"/><circle cx="579.2727272727273" cy="115.68627450980392" r="3.5" fill="#ef4444"/><circle cx="639.6363636363636" cy="30.039215686274517" r="3.5" fill="#ef4444"/><circle cx="700" cy="119.76470588235294" r="3.5" fill="#ef4444"/>
  <text x="36" y="146" font-size="10" fill="#94a3b8" text-anchor="middle">07-07</text><text x="156.72727272727275" y="146" font-size="10" fill="#94a3b8" text-anchor="middle">07-09</text><text x="277.4545454545455" y="146" font-size="10" fill="#94a3b8" text-anchor="middle">07-13</text><text x="398.18181818181813" y="146" font-size="10" fill="#94a3b8" text-anchor="middle">07-15</text><text x="518.909090909091" y="146" font-size="10" fill="#94a3b8" text-anchor="middle">07-17</text><text x="639.6363636363636" y="146" font-size="10" fill="#94a3b8" text-anchor="middle">07-20</text><text x="700" y="146" font-size="10" fill="#94a3b8" text-anchor="middle">07-21</text>
  <text x="36" y="140" font-size="12" font-weight="600" fill="#334155">CONNECT — daily adds (left) · weekly total (right)</text>
  <line x1="36" y1="252" x2="700" y2="252" stroke="#e2e8f0" stroke-width="1"/>
  <polyline points="36.0,250.9 96.4,148.0 156.7,252.0 217.1,252.0 277.5,252.0 337.8,250.9 398.2,223.6 458.5,250.9 518.9,177.4 579.3,252.0 639.6,190.0 700.0,252.0" fill="none" stroke="#8b5cf6" stroke-width="2" stroke-linecap="round" stroke-linejoin="round" stroke-dasharray="5 3"/>
  <rect x="122.7" y="148.0" width="48" height="104.0" rx="3" fill="#fcd34d" opacity="0.9"/><rect x="344.0" y="148.0" width="48" height="104.0" rx="3" fill="#fcd34d" opacity="0.9"/><rect x="565.3" y="190.6" width="48" height="61.4" rx="3" fill="#f59e0b" opacity="0.9"/>
  <line x1="401.20000000000005" y1="148" x2="401.20000000000005" y2="252" stroke="#e2e8f0" stroke-width="1"/>
  <text x="146.66666666666669" y="274" font-size="10" fill="#94a3b8" text-anchor="middle">07-06</text><text x="368" y="274" font-size="10" fill="#94a3b8" text-anchor="middle">07-13</text><text x="589.3333333333334" y="274" font-size="10" fill="#94a3b8" text-anchor="middle">07-20</text>
  <text x="700" y="18" font-size="10" fill="#ef4444" text-anchor="end">Apply / day</text>
  <text x="700" y="140" font-size="10" fill="#8b5cf6" text-anchor="end">Connect / day</text>
  <text x="700" y="152" font-size="10" fill="#f59e0b" text-anchor="end">Connect / week</text>
</svg>