<svg xmlns="http://www.w3.org/2000/svg" width="720" height="280" viewBox="0 0 720 280">
  <rect width="720" height="280" fill="#f8fafc" rx="8"/>
  <text x="36" y="18" font-size="12" font-weight="600" fill="#334155">APPLY — daily (goal 50)</text>
  <line x1="36" y1="132" x2="700" y2="132" stroke="#e2e8f0" stroke-width="1"/>
  <line x1="36" y1="30.0" x2="700" y2="30.0" stroke="#f59e0b" stroke-width="1" stroke-dasharray="4 3" opacity="0.55"/>
  <polyline points="36.0,105.5 87.1,28.0 138.2,113.6 189.2,119.8 240.3,125.9 291.4,130.0 342.5,105.5 393.5,132.0 444.6,74.9 495.7,115.7 546.8,30.0 597.8,81.0 648.9,87.1 700.0,115.7" fill="none" stroke="#ef4444" stroke-width="2.5" stroke-linecap="round" stroke-linejoin="round"/>
  <circle cx="36" cy="105.49019607843138" r="3.5" fill="#ef4444"/><circle cx="87.07692307692308" cy="28" r="3.5" fill="#ef4444"/><circle cx="138.15384615384616" cy="113.6470588235294" r="3.5" fill="#ef4444"/><circle cx="189.23076923076923" cy="119.76470588235294" r="3.5" fill="#ef4444"/><circle cx="240.30769230769232" cy="125.88235294117646" r="3.5" fill="#ef4444"/><circle cx="291.38461538461536" cy="129.9607843137255" r="3.5" fill="#ef4444"/><circle cx="342.46153846153845" cy="105.49019607843138" r="3.5" fill="#ef4444"/><circle cx="393.53846153846155" cy="132" r="3.5" fill="#ef4444"/><circle cx="444.61538461538464" cy="74.90196078431373" r="3.5" fill="#ef4444"/><circle cx="495.6923076923077" cy="115.68627450980392" r="3.5" fill="#ef4444"/><circle cx="546.7692307692307" cy="30.039215686274517" r="3.5" fill="#ef4444"/><circle cx="597.8461538461538" cy="81.01960784313727" r="3.5" fill="#ef4444"/><circle cx="648.9230769230769" cy="87.13725490196077" r="3.5" fill="#ef4444"/><circle cx="700" cy="115.68627450980392" r="3.5" fill="#ef4444"/>
  <text x="36" y="146" font-size="10" fill="#94a3b8" text-anchor="middle">07-07</text><text x="138.15384615384616" y="146" font-size="10" fill="#94a3b8" text-anchor="middle">07-09</text><text x="240.30769230769232" y="146" font-size="10" fill="#94a3b8" text-anchor="middle">07-13</text><text x="342.46153846153845" y="146" font-size="10" fill="#94a3b8" text-anchor="middle">07-15</text><text x="444.61538461538464" y="146" font-size="10" fill="#94a3b8" text-anchor="middle">07-17</text><text x="546.7692307692307" y="146" font-size="10" fill="#94a3b8" text-anchor="middle">07-20</text><text x="648.9230769230769" y="146" font-size="10" fill="#94a3b8" text-anchor="middle">07-22</text><text x="700" y="146" font-size="10" fill="#94a3b8" text-anchor="middle">07-23</text>
  <text x="36" y="140" font-size="12" font-weight="600" fill="#334155">CONNECT — daily adds (left) · weekly total (right)</text>
  <line x1="36" y1="252" x2="700" y2="252" stroke="#e2e8f0" stroke-width="1"/>
  <polyline points="36.0,250.9 87.1,148.0 138.2,252.0 189.2,252.0 240.3,252.0 291.4,250.9 342.5,223.6 393.5,250.9 444.6,177.4 495.7,252.0 546.8,190.0 597.8,252.0 648.9,252.0 700.0,250.9" fill="none" stroke="#8b5cf6" stroke-width="2" stroke-linecap="round" stroke-linejoin="round" stroke-dasharray="5 3"/>
  <rect x="122.7" y="148.0" width="48" height="104.0" rx="3" fill="#fcd34d" opacity="0.9"/><rect x="344.0" y="148.0" width="48" height="104.0" rx="3" fill="#fcd34d" opacity="0.9"/><rect x="565.3" y="189.6" width="48" height="62.4" rx="3" fill="#f59e0b" opacity="0.9"/>
  <line x1="401.20000000000005" y1="148" x2="401.20000000000005" y2="252" stroke="#e2e8f0" stroke-width="1"/>
  <text x="146.66666666666669" y="274" font-size="10" fill="#94a3b8" text-anchor="middle">07-06</text><text x="368" y="274" font-size="10" fill="#94a3b8" text-anchor="middle">07-13</text><text x="589.3333333333334" y="274" font-size="10" fill="#94a3b8" text-anchor="middle">07-20</text>
  <text x="700" y="18" font-size="10" fill="#ef4444" text-anchor="end">Apply / day</text>
  <text x="700" y="140" font-size="10" fill="#8b5cf6" text-anchor="end">Connect / day</text>
  <text x="700" y="152" font-size="10" fill="#f59e0b" text-anchor="end">Connect / week</text>
</svg>