<svg xmlns="http://www.w3.org/2000/svg" width="720" height="280" viewBox="0 0 720 280">
  <rect width="720" height="280" fill="#f8fafc" rx="8"/>
  <text x="36" y="18" font-size="12" font-weight="600" fill="#334155">APPLY — daily (goal 50)</text>
  <line x1="36" y1="132" x2="700" y2="132" stroke="#e2e8f0" stroke-width="1"/>
  <line x1="36" y1="30.0" x2="700" y2="30.0" stroke="#f59e0b" stroke-width="1" stroke-dasharray="4 3" opacity="0.55"/>
  <polyline points="36.0,105.5 91.3,28.0 146.7,113.6 202.0,119.8 257.3,125.9 312.7,130.0 368.0,105.5 423.3,132.0 478.7,74.9 534.0,115.7 589.3,30.0 644.7,81.0 700.0,109.6" fill="none" stroke="#ef4444" stroke-width="2.5" stroke-linecap="round" stroke-linejoin="round"/>
  <circle cx="36" cy="105.49019607843138" r="3.5" fill="#ef4444"/><circle cx="91.33333333333333" cy="28" r="3.5" fill="#ef4444"/><circle cx="146.66666666666666" cy="113.6470588235294" r="3.5" fill="#ef4444"/><circle cx="202" cy="119.76470588235294" r="3.5" fill="#ef4444"/><circle cx="257.3333333333333" cy="125.88235294117646" r="3.5" fill="#ef4444"/><circle cx="312.6666666666667" cy="129.9607843137255" r="3.5" fill="#ef4444"/><circle cx="368" cy="105.49019607843138" r="3.5" fill="#ef4444"/><circle cx="423.33333333333337" cy="132" r="3.5" fill="#ef4444"/><circle cx="478.66666666666663" cy="74.90196078431373" r="3.5" fill="#ef4444"/><circle cx="534" cy="115.68627450980392" r="3.5" fill="#ef4444"/><circle cx="589.3333333333334" cy="30.039215686274517" r="3.5" fill="#ef4444"/><circle cx="644.6666666666666" cy="81.01960784313727" r="3.5" fill="#ef4444"/><circle cx="700" cy="109.56862745098039" r="3.5" fill="#ef4444"/>
  <text x="36" y="146" font-size="10" fill="#94a3b8" text-anchor="middle">07-07</text><text x="146.66666666666666" y="146" font-size="10" fill="#94a3b8" text-anchor="middle">07-09</text><text x="257.3333333333333" y="146" font-size="10" fill="#94a3b8" text-anchor="middle">07-13</text><text x="368" y="146" font-size="10" fill="#94a3b8" text-anchor="middle">07-15</text><text x="478.66666666666663" y="146" font-size="10" fill="#94a3b8" text-anchor="middle">07-17</text><text x="589.3333333333334" y="146" font-size="10" fill="#94a3b8" text-anchor="middle">07-20</text><text x="700" y="146" font-size="10" fill="#94a3b8" text-anchor="middle">07-22</text>
  <text x="36" y="140" font-size="12" font-weight="600" fill="#334155">CONNECT — daily adds (left) · weekly total (right)</text>
  <line x1="36" y1="252" x2="700" y2="252" stroke="#e2e8f0" stroke-width="1"/>
  <polyline points="36.0,250.9 91.3,148.0 146.7,252.0 202.0,252.0 257.3,252.0 312.7,250.9 368.0,223.6 423.3,250.9 478.7,177.4 534.0,252.0 589.3,190.0 644.7,252.0 700.0,252.0" fill="none" stroke="#8b5cf6" stroke-width="2" stroke-linecap="round" stroke-linejoin="round" stroke-dasharray="5 3"/>
  <rect x="122.7" y="148.0" width="48" height="104.0" rx="3" fill="#fcd34d" opacity="0.9"/><rect x="344.0" y="148.0" width="48" height="104.0" rx="3" fill="#fcd34d" opacity="0.9"/><rect x="565.3" y="190.6" width="48" height="61.4" rx="3" fill="#f59e0b" opacity="0.9"/>
  <line x1="401.20000000000005" y1="148" x2="401.20000000000005" y2="252" stroke="#e2e8f0" stroke-width="1"/>
  <text x="146.66666666666669" y="274" font-size="10" fill="#94a3b8" text-anchor="middle">07-06</text><text x="368" y="274" font-size="10" fill="#94a3b8" text-anchor="middle">07-13</text><text x="589.3333333333334" y="274" font-size="10" fill="#94a3b8" text-anchor="middle">07-20</text>
  <text x="700" y="18" font-size="10" fill="#ef4444" text-anchor="end">Apply / day</text>
  <text x="700" y="140" font-size="10" fill="#8b5cf6" text-anchor="end">Connect / day</text>
  <text x="700" y="152" font-size="10" fill="#f59e0b" text-anchor="end">Connect / week</text>
</svg>