<svg xmlns="http://www.w3.org/2000/svg" width="720" height="280" viewBox="0 0 720 280">
  <rect width="720" height="280" fill="#f8fafc" rx="8"/>
  <text x="36" y="18" font-size="12" font-weight="600" fill="#334155">APPLY — daily (goal 50)</text>
  <line x1="36" y1="132" x2="700" y2="132" stroke="#e2e8f0" stroke-width="1"/>
  <line x1="36" y1="30.0" x2="700" y2="30.0" stroke="#f59e0b" stroke-width="1" stroke-dasharray="4 3" opacity="0.55"/>
  <polyline points="36.0,105.5 102.4,28.0 168.8,113.6 235.2,119.8 301.6,125.9 368.0,130.0 434.4,105.5 500.8,132.0 567.2,74.9 633.6,115.7 700.0,72.9" fill="none" stroke="#ef4444" stroke-width="2.5" stroke-linecap="round" stroke-linejoin="round"/>
  <circle cx="36" cy="105.49019607843138" r="3.5" fill="#ef4444"/><circle cx="102.4" cy="28" r="3.5" fill="#ef4444"/><circle cx="168.8" cy="113.6470588235294" r="3.5" fill="#ef4444"/><circle cx="235.2" cy="119.76470588235294" r="3.5" fill="#ef4444"/><circle cx="301.6" cy="125.88235294117646" r="3.5" fill="#ef4444"/><circle cx="368" cy="129.9607843137255" r="3.5" fill="#ef4444"/><circle cx="434.4" cy="105.49019607843138" r="3.5" fill="#ef4444"/><circle cx="500.79999999999995" cy="132" r="3.5" fill="#ef4444"/><circle cx="567.2" cy="74.90196078431373" r="3.5" fill="#ef4444"/><circle cx="633.6" cy="115.68627450980392" r="3.5" fill="#ef4444"/><circle cx="700" cy="72.86274509803923" r="3.5" fill="#ef4444"/>
  <text x="36" y="146" font-size="10" fill="#94a3b8" text-anchor="middle">07-07</text><text x="168.8" y="146" font-size="10" fill="#94a3b8" text-anchor="middle">07-09</text><text x="301.6" y="146" font-size="10" fill="#94a3b8" text-anchor="middle">07-13</text><text x="434.4" y="146" font-size="10" fill="#94a3b8" text-anchor="middle">07-15</text><text x="567.2" y="146" font-size="10" fill="#94a3b8" text-anchor="middle">07-17</text><text x="700" y="146" font-size="10" fill="#94a3b8" text-anchor="middle">07-20</text>
  <text x="36" y="140" font-size="12" font-weight="600" fill="#334155">CONNECT — daily adds (left) · weekly total (right)</text>
  <line x1="36" y1="252" x2="700" y2="252" stroke="#e2e8f0" stroke-width="1"/>
  <polyline points="36.0,250.9 102.4,148.0 168.8,252.0 235.2,252.0 301.6,252.0 368.0,250.9 434.4,223.6 500.8,250.9 567.2,177.4 633.6,252.0 700.0,190.0" fill="none" stroke="#8b5cf6" stroke-width="2" stroke-linecap="round" stroke-linejoin="round" stroke-dasharray="5 3"/>
  <rect x="122.7" y="148.0" width="48" height="104.0" rx="3" fill="#fcd34d" opacity="0.9"/><rect x="344.0" y="148.0" width="48" height="104.0" rx="3" fill="#fcd34d" opacity="0.9"/><rect x="565.3" y="190.6" width="48" height="61.4" rx="3" fill="#f59e0b" opacity="0.9"/>
  <line x1="401.20000000000005" y1="148" x2="401.20000000000005" y2="252" stroke="#e2e8f0" stroke-width="1"/>
  <text x="146.66666666666669" y="274" font-size="10" fill="#94a3b8" text-anchor="middle">07-06</text><text x="368" y="274" font-size="10" fill="#94a3b8" text-anchor="middle">07-13</text><text x="589.3333333333334" y="274" font-size="10" fill="#94a3b8" text-anchor="middle">07-20</text>
  <text x="700" y="18" font-size="10" fill="#ef4444" text-anchor="end">Apply / day</text>
  <text x="700" y="140" font-size="10" fill="#8b5cf6" text-anchor="end">Connect / day</text>
  <text x="700" y="152" font-size="10" fill="#f59e0b" text-anchor="end">Connect / week</text>
</svg>