<svg xmlns="http://www.w3.org/2000/svg" width="720" height="280" viewBox="0 0 720 280">
  <rect width="720" height="280" fill="#f8fafc" rx="8"/>
  <text x="36" y="18" font-size="12" font-weight="600" fill="#334155">APPLY — daily (goal 50)</text>
  <line x1="36" y1="132" x2="700" y2="132" stroke="#e2e8f0" stroke-width="1"/>
  <line x1="36" y1="30.0" x2="700" y2="30.0" stroke="#f59e0b" stroke-width="1" stroke-dasharray="4 3" opacity="0.55"/>
  <polyline points="36.0,105.5 109.8,28.0 183.6,113.6 257.3,119.8 331.1,125.9 404.9,130.0 478.7,105.5 552.4,132.0 626.2,74.9 700.0,117.7" fill="none" stroke="#ef4444" stroke-width="2.5" stroke-linecap="round" stroke-linejoin="round"/>
  <circle cx="36" cy="105.49019607843138" r="3.5" fill="#ef4444"/><circle cx="109.77777777777777" cy="28" r="3.5" fill="#ef4444"/><circle cx="183.55555555555554" cy="113.6470588235294" r="3.5" fill="#ef4444"/><circle cx="257.3333333333333" cy="119.76470588235294" r="3.5" fill="#ef4444"/><circle cx="331.1111111111111" cy="125.88235294117646" r="3.5" fill="#ef4444"/><circle cx="404.8888888888889" cy="129.9607843137255" r="3.5" fill="#ef4444"/><circle cx="478.66666666666663" cy="105.49019607843138" r="3.5" fill="#ef4444"/><circle cx="552.4444444444445" cy="132" r="3.5" fill="#ef4444"/><circle cx="626.2222222222222" cy="74.90196078431373" r="3.5" fill="#ef4444"/><circle cx="700" cy="117.72549019607843" r="3.5" fill="#ef4444"/>
  <text x="36" y="146" font-size="10" fill="#94a3b8" text-anchor="middle">07-07</text><text x="109.77777777777777" y="146" font-size="10" fill="#94a3b8" text-anchor="middle">07-08</text><text x="183.55555555555554" y="146" font-size="10" fill="#94a3b8" text-anchor="middle">07-09</text><text x="257.3333333333333" y="146" font-size="10" fill="#94a3b8" text-anchor="middle">07-10</text><text x="331.1111111111111" y="146" font-size="10" fill="#94a3b8" text-anchor="middle">07-13</text><text x="404.8888888888889" y="146" font-size="10" fill="#94a3b8" text-anchor="middle">07-14</text><text x="478.66666666666663" y="146" font-size="10" fill="#94a3b8" text-anchor="middle">07-15</text><text x="552.4444444444445" y="146" font-size="10" fill="#94a3b8" text-anchor="middle">07-16</text><text x="626.2222222222222" y="146" font-size="10" fill="#94a3b8" text-anchor="middle">07-17</text><text x="700" y="146" font-size="10" fill="#94a3b8" text-anchor="middle">07-18</text>
  <text x="36" y="140" font-size="12" font-weight="600" fill="#334155">CONNECT — daily adds (left) · weekly total (right)</text>
  <line x1="36" y1="252" x2="700" y2="252" stroke="#e2e8f0" stroke-width="1"/>
  <polyline points="36.0,250.9 109.8,148.0 183.6,252.0 257.3,252.0 331.1,252.0 404.9,250.9 478.7,223.6 552.4,250.9 626.2,177.4 700.0,252.0" fill="none" stroke="#8b5cf6" stroke-width="2" stroke-linecap="round" stroke-linejoin="round" stroke-dasharray="5 3"/>
  <rect x="178.0" y="148.0" width="48" height="104.0" rx="3" fill="#fcd34d" opacity="0.9"/><rect x="510.0" y="148.0" width="48" height="104.0" rx="3" fill="#f59e0b" opacity="0.9"/>
  <line x1="401.20000000000005" y1="148" x2="401.20000000000005" y2="252" stroke="#e2e8f0" stroke-width="1"/>
  <text x="202" y="274" font-size="10" fill="#94a3b8" text-anchor="middle">07-06</text><text x="534" y="274" font-size="10" fill="#94a3b8" text-anchor="middle">07-13</text>
  <text x="700" y="18" font-size="10" fill="#ef4444" text-anchor="end">Apply / day</text>
  <text x="700" y="140" font-size="10" fill="#8b5cf6" text-anchor="end">Connect / day</text>
  <text x="700" y="152" font-size="10" fill="#f59e0b" text-anchor="end">Connect / week</text>
</svg>