<svg xmlns="http://www.w3.org/2000/svg" width="720" height="280" viewBox="0 0 720 280">
  <rect width="720" height="280" fill="#f8fafc" rx="8"/>
  <text x="36" y="18" font-size="12" font-weight="600" fill="#334155">APPLY — daily (goal 50)</text>
  <line x1="36" y1="132" x2="700" y2="132" stroke="#e2e8f0" stroke-width="1"/>
  <line x1="36" y1="30.0" x2="700" y2="30.0" stroke="#f59e0b" stroke-width="1" stroke-dasharray="4 3" opacity="0.55"/>
  <polyline points="36.0,105.5 119.0,28.0 202.0,113.6 285.0,119.8 368.0,125.9 451.0,130.0 534.0,105.5 617.0,132.0 700.0,132.0" fill="none" stroke="#ef4444" stroke-width="2.5" stroke-linecap="round" stroke-linejoin="round"/>
  <circle cx="36" cy="105.49019607843138" r="3.5" fill="#ef4444"/><circle cx="119" cy="28" r="3.5" fill="#ef4444"/><circle cx="202" cy="113.6470588235294" r="3.5" fill="#ef4444"/><circle cx="285" cy="119.76470588235294" r="3.5" fill="#ef4444"/><circle cx="368" cy="125.88235294117646" r="3.5" fill="#ef4444"/><circle cx="451" cy="129.9607843137255" r="3.5" fill="#ef4444"/><circle cx="534" cy="105.49019607843138" r="3.5" fill="#ef4444"/><circle cx="617" cy="132" r="3.5" fill="#ef4444"/><circle cx="700" cy="132" r="3.5" fill="#ef4444"/>
  <text x="36" y="146" font-size="10" fill="#94a3b8" text-anchor="middle">07-07</text><text x="119" y="146" font-size="10" fill="#94a3b8" text-anchor="middle">07-08</text><text x="202" y="146" font-size="10" fill="#94a3b8" text-anchor="middle">07-09</text><text x="285" y="146" font-size="10" fill="#94a3b8" text-anchor="middle">07-10</text><text x="368" y="146" font-size="10" fill="#94a3b8" text-anchor="middle">07-13</text><text x="451" y="146" font-size="10" fill="#94a3b8" text-anchor="middle">07-14</text><text x="534" y="146" font-size="10" fill="#94a3b8" text-anchor="middle">07-15</text><text x="617" y="146" font-size="10" fill="#94a3b8" text-anchor="middle">07-16</text><text x="700" y="146" font-size="10" fill="#94a3b8" text-anchor="middle">07-17</text>
  <text x="36" y="140" font-size="12" font-weight="600" fill="#334155">CONNECT — daily adds (left) · weekly total (right)</text>
  <line x1="36" y1="252" x2="700" y2="252" stroke="#e2e8f0" stroke-width="1"/>
  <polyline points="36.0,250.9 119.0,148.0 202.0,252.0 285.0,252.0 368.0,252.0 451.0,250.9 534.0,223.6 617.0,250.9 700.0,221.5" fill="none" stroke="#8b5cf6" stroke-width="2" stroke-linecap="round" stroke-linejoin="round" stroke-dasharray="5 3"/>
  <rect x="178.0" y="148.0" width="48" height="104.0" rx="3" fill="#fcd34d" opacity="0.9"/><rect x="510.0" y="191.7" width="48" height="60.3" rx="3" fill="#f59e0b" opacity="0.9"/>
  <line x1="401.20000000000005" y1="148" x2="401.20000000000005" y2="252" stroke="#e2e8f0" stroke-width="1"/>
  <text x="202" y="274" font-size="10" fill="#94a3b8" text-anchor="middle">07-06</text><text x="534" y="274" font-size="10" fill="#94a3b8" text-anchor="middle">07-13</text>
  <text x="700" y="18" font-size="10" fill="#ef4444" text-anchor="end">Apply / day</text>
  <text x="700" y="140" font-size="10" fill="#8b5cf6" text-anchor="end">Connect / day</text>
  <text x="700" y="152" font-size="10" fill="#f59e0b" text-anchor="end">Connect / week</text>
</svg>